<svg width="213" height="64" viewBox="0 0 213 64" fill="currentColor" xmlns="http://www.w3.org/2000/svg">
<path d="M75.4 62.368C75.656 62.368 75.912 62.368 76.168 62.368V63.008C74.9733 63.1787 73.6293 63.264 72.136 63.264C70.6853 63.264 68.872 62.944 66.696 62.304C64.5627 61.664 62.6213 60.4693 60.872 58.72C57.288 55.136 55.112 50.4853 54.344 44.768L50.44 16.288L37.128 46.368C35.9333 48.9707 35.208 51.1467 34.952 52.896H34.312L17.736 16.864L14.92 48.672C14.8347 49.3973 15.048 50.0373 15.56 50.592C16.1147 51.1467 16.712 51.424 17.352 51.424H18.376V52H5.96V51.36H6.984C8.136 51.36 9.13867 51.0187 9.992 50.336C10.888 49.6107 11.4427 48.672 11.656 47.52L15.688 12.576C11.9333 5.19466 7.432 1.504 2.184 1.504C1.71467 1.504 1.224 1.52533 0.712 1.568V0.927998C1.864 0.62933 2.80267 0.479996 3.528 0.479996C4.25333 0.479996 5.04267 0.522663 5.896 0.607998C6.74933 0.650664 7.752 0.842664 8.904 1.184C10.056 1.52533 11.144 2.03733 12.168 2.72C13.192 3.36 14.088 4.04266 14.856 4.768C15.624 5.45066 16.3493 6.21866 17.032 7.072C18.184 8.608 19.1013 10.08 19.784 11.488L35.208 44.896L52.424 6.304H53L58.952 44.192C59.848 50.1653 61.768 54.688 64.712 57.76C67.6987 60.832 71.2613 62.368 75.4 62.368ZM110.387 51.36H110.899V52H96.4985V51.36H97.0745C97.9705 51.36 98.6318 51.0827 99.0585 50.528C99.5278 49.9307 99.7625 49.376 99.7625 48.864C99.7625 48.352 99.6772 47.84 99.5065 47.328L95.4105 36.448H78.1305L73.8425 47.392C73.6718 47.904 73.5865 48.416 73.5865 48.928C73.5865 49.3973 73.7998 49.9307 74.2265 50.528C74.6958 51.0827 75.3785 51.36 76.2745 51.36H76.8505V52H63.9865V51.36H64.5625C65.6292 51.36 66.6745 51.0187 67.6985 50.336C68.7225 49.6533 69.5545 48.6507 70.1945 47.328L84.6585 12.896C86.2372 9.44 87.0265 7.24266 87.0265 6.304H87.6025L104.755 47.328C105.352 48.6507 106.163 49.6533 107.187 50.336C108.211 51.0187 109.277 51.36 110.387 51.36ZM78.8985 34.528H94.6425L86.9625 13.984L78.8985 34.528ZM140.333 7.904V13.28H139.693V12.32C139.693 11.4667 139.394 10.7413 138.797 10.144C138.2 9.504 137.453 9.184 136.557 9.184H123.053V28.96H133.869C134.722 28.9173 135.448 28.5973 136.045 28C136.642 27.4027 136.941 26.6773 136.941 25.824V24.864H137.581V34.976H136.941V34.016C136.941 33.1627 136.642 32.4373 136.045 31.84C135.49 31.2427 134.786 30.9227 133.933 30.88H123.053V47.328C123.053 48.4373 123.458 49.3973 124.269 50.208C125.08 50.976 126.04 51.36 127.149 51.36H127.981V52H113.965V51.36H114.797C115.906 51.36 116.845 50.976 117.613 50.208C118.424 49.3973 118.85 48.4373 118.893 47.328V11.488C118.893 10.464 118.466 9.61067 117.613 8.928C116.802 8.20266 115.864 7.84 114.797 7.84H114.029L113.965 7.2H132.717C134.04 7.2 135.469 7.072 137.005 6.816C138.584 6.56 139.693 6.304 140.333 6.048V7.904ZM149.422 51.36C150.531 51.36 151.47 50.976 152.238 50.208C153.049 49.3973 153.475 48.4373 153.518 47.328V11.808C153.475 10.6987 153.049 9.76 152.238 8.992C151.47 8.224 150.531 7.84 149.422 7.84H148.59V7.2H162.606V7.84H161.774C160.665 7.84 159.705 8.224 158.894 8.992C158.126 9.76 157.721 10.6987 157.678 11.808V47.328C157.678 48.4373 158.083 49.3973 158.894 50.208C159.705 50.976 160.665 51.36 161.774 51.36H162.606V52H148.59V51.36H149.422ZM212.199 51.36H212.711V52H198.311V51.36H198.887C199.783 51.36 200.444 51.0827 200.871 50.528C201.34 49.9307 201.575 49.376 201.575 48.864C201.575 48.352 201.49 47.84 201.319 47.328L197.223 36.448H179.943L175.655 47.392C175.484 47.904 175.399 48.416 175.399 48.928C175.399 49.3973 175.612 49.9307 176.039 50.528C176.508 51.0827 177.191 51.36 178.087 51.36H178.663V52H165.799V51.36H166.375C167.442 51.36 168.487 51.0187 169.511 50.336C170.535 49.6533 171.367 48.6507 172.007 47.328L186.471 12.896C188.05 9.44 188.839 7.24266 188.839 6.304H189.415L206.567 47.328C207.164 48.6507 207.975 49.6533 208.999 50.336C210.023 51.0187 211.09 51.36 212.199 51.36ZM180.711 34.528H196.455L188.775 13.984L180.711 34.528Z" />
</svg>
