<svg width="24" height="24" viewBox="0 0 24 24" fill="currentColor" xmlns="http://www.w3.org/2000/svg">
<g clip-path="url(#clip0_70_351)">
<path fill-rule="evenodd" clip-rule="evenodd" d="M21.7906 2.20904C21.8885 2.30687 21.9559 2.43104 21.9845 2.56645C22.0132 2.70187 22.0019 2.84269 21.952 2.9718L14.81 21.5408C14.7595 21.6722 14.6712 21.7857 14.5564 21.8671C14.4415 21.9485 14.3051 21.9941 14.1644 21.9982C14.0237 22.0024 13.8849 21.9648 13.7654 21.8903C13.646 21.8157 13.5512 21.7076 13.4931 21.5794L10.5063 15.0088L14.9 10.6137C15.0893 10.4106 15.1923 10.142 15.1874 9.86444C15.1825 9.5869 15.0701 9.3221 14.8738 9.12582C14.6775 8.92954 14.4127 8.81711 14.1352 8.81222C13.8576 8.80732 13.589 8.91034 13.3859 9.09957L8.9908 13.4933L2.42023 10.508C2.29163 10.4499 2.18311 10.355 2.10838 10.2353C2.03365 10.1156 1.99605 9.97646 2.00033 9.83541C2.00461 9.69437 2.05057 9.55775 2.13242 9.44281C2.21427 9.32786 2.32834 9.23974 2.46022 9.18956L21.0292 2.04763C21.1581 1.99803 21.2987 1.98688 21.4338 2.01553C21.5689 2.04418 21.6929 2.1114 21.7906 2.20904Z"/>
</g>
<defs>
<clipPath id="clip0_70_351">
<rect width="24" height="24"/>
</clipPath>
</defs>
</svg>
